<svg width="131" height="35" viewBox="0 0 131 35" fill="none" xmlns="http://www.w3.org/2000/svg">
<path fill-rule="evenodd" clip-rule="evenodd" d="M24.069 30.0368L24.0327 30.055L23.9964 30.0368L16.2457 34.5L0 25.1382V4.94504L7.78703 9.42636V0.5L15.5741 4.98132V4.94504L24.0327 9.82551L32.4913 4.94504V4.98132L40.2784 0.5V9.42636L48.0654 4.94504V25.1201L31.8197 34.5L24.069 30.0368ZM9.96522 19.4232L24.0146 27.5331L38.0639 19.4232V4.27375L24.0146 12.3655L9.96522 4.27375V19.4232ZM26.2472 28.785L31.8016 31.9963L45.8509 23.8863V8.73693L40.2602 11.9664V20.6932L26.2472 28.785ZM16.2457 31.9781L21.8001 28.7668L7.76888 20.675V11.9482L2.19634 8.73693V23.8863L16.2457 31.9781Z" fill="white"/>
<path fill-rule="evenodd" clip-rule="evenodd" d="M61.3334 12.9823H57.0133L56.3962 15.0144H52.5117L57.1404 2.67711H61.3152L65.9439 15.0144H61.9505L61.3334 12.9823ZM60.5347 10.2972L59.1734 5.87028L57.8301 10.2972H60.5347ZM67.1964 15.0144V2.67711H73.5494C74.7293 2.67711 75.6187 2.78597 76.254 2.98554C76.8712 3.18512 77.3794 3.56612 77.7606 4.11041C78.1418 4.6547 78.3233 5.32599 78.3233 6.10614C78.3233 6.79558 78.1781 7.37615 77.8876 7.88416C77.5972 8.39216 77.1979 8.79131 76.6896 9.09974C76.3629 9.29931 75.9091 9.4626 75.3464 9.5896C75.8002 9.73474 76.1269 9.89803 76.3448 10.0432C76.49 10.152 76.6896 10.3697 76.9619 10.6963C77.2342 11.0229 77.3975 11.2769 77.4883 11.4583L79.3216 15.0144H75.0197L72.9867 11.2588C72.7326 10.7689 72.4966 10.4605 72.2969 10.3153C72.0247 10.1339 71.7161 10.025 71.3531 10.025H71.0082V15.0144H67.1964ZM71.0263 7.68458H72.6418C72.8052 7.68458 73.1501 7.63015 73.6583 7.5213C73.9124 7.46687 74.1121 7.33987 74.2755 7.14029C74.4388 6.92258 74.5114 6.68672 74.5114 6.41457C74.5114 6.01543 74.3844 5.707 74.1303 5.48928C73.8761 5.27156 73.4042 5.1627 72.7144 5.1627H71.0445V7.68458H71.0263ZM88.1251 12.9823L88.7423 15.0144H92.7356L88.107 2.67711H83.9321L79.3035 15.0144H83.1879L83.8051 12.9823H88.1251ZM87.3265 10.2972H84.6219L85.9651 5.87028L87.3265 10.2972ZM93.2802 10.9322L96.8923 10.6963C96.965 11.2769 97.1283 11.7305 97.3643 12.0389C97.7636 12.5288 98.3082 12.7828 99.0524 12.7828C99.5969 12.7828 100.014 12.6558 100.305 12.4018C100.595 12.1478 100.74 11.8575 100.74 11.5128C100.74 11.1862 100.595 10.914 100.323 10.66C100.051 10.406 99.3973 10.1702 98.3808 9.95246C96.7108 9.57146 95.5128 9.08159 94.8049 8.46473C94.0789 7.84787 93.734 7.04958 93.734 6.088C93.734 5.45299 93.9155 4.85427 94.2785 4.29184C94.6416 3.72941 95.2043 3.27583 95.9303 2.9674C96.6745 2.64083 97.6729 2.47754 98.9616 2.47754C100.541 2.47754 101.739 2.76783 102.556 3.36655C103.391 3.94712 103.881 4.89056 104.026 6.16057L100.45 6.37829C100.359 5.81585 100.16 5.41671 99.8511 5.1627C99.5425 4.9087 99.125 4.7817 98.5804 4.7817C98.1448 4.7817 97.7999 4.87242 97.5821 5.05385C97.3643 5.23528 97.2372 5.47114 97.2372 5.74328C97.2372 5.94285 97.328 6.10614 97.5095 6.26943C97.691 6.43272 98.1085 6.57786 98.7801 6.723C100.45 7.08586 101.63 7.44872 102.356 7.81158C103.082 8.17444 103.608 8.62802 103.935 9.17231C104.262 9.7166 104.425 10.3153 104.425 11.0048C104.425 11.7849 104.207 12.5288 103.772 13.1819C103.336 13.8532 102.719 14.3612 101.938 14.7059C101.158 15.0506 100.16 15.2139 98.9798 15.2139C96.8923 15.2139 95.4402 14.8148 94.6234 13.9984C93.8429 13.2001 93.3891 12.1659 93.2802 10.9322ZM105.714 10.9322L109.326 10.6963C109.399 11.2769 109.562 11.7305 109.798 12.0389C110.197 12.5288 110.742 12.7828 111.486 12.7828C112.031 12.7828 112.448 12.6558 112.739 12.4018C113.029 12.1478 113.174 11.8575 113.174 11.5128C113.174 11.1862 113.029 10.914 112.757 10.66C112.485 10.406 111.831 10.1702 110.815 9.95246C109.145 9.57146 107.947 9.08159 107.239 8.46473C106.513 7.84787 106.168 7.04958 106.168 6.088C106.168 5.45299 106.349 4.85427 106.712 4.29184C107.075 3.72941 107.638 3.27583 108.364 2.9674C109.108 2.64083 110.107 2.47754 111.395 2.47754C112.975 2.47754 114.173 2.76783 114.989 3.36655C115.824 3.94712 116.315 4.89056 116.46 6.16057L112.884 6.37829C112.793 5.81585 112.593 5.41671 112.285 5.1627C111.976 4.9087 111.559 4.7817 111.014 4.7817C110.579 4.7817 110.234 4.87242 110.016 5.05385C109.798 5.23528 109.671 5.47114 109.671 5.74328C109.671 5.94285 109.762 6.10614 109.943 6.26943C110.125 6.43272 110.542 6.57786 111.214 6.723C112.884 7.08586 114.064 7.44872 114.79 7.81158C115.516 8.17444 116.042 8.62802 116.369 9.17231C116.696 9.7166 116.859 10.3153 116.859 11.0048C116.859 11.7849 116.641 12.5288 116.206 13.1819C115.77 13.8532 115.153 14.3612 114.372 14.7059C113.592 15.0506 112.593 15.2139 111.414 15.2139C109.326 15.2139 107.874 14.8148 107.057 13.9984C106.277 13.2001 105.823 12.1659 105.714 10.9322ZM126.407 12.9823H122.087L121.47 15.0144H117.585L122.214 2.67711H126.389L130.999 15.0144H127.006L126.407 12.9823ZM125.59 10.2972L124.247 5.87028L122.885 10.2972H125.59ZM58.5744 20.6387H62.1321L66.7607 27.4423V20.6387H70.3547V32.9578H66.7607L62.1684 26.1905V32.9578H58.5925V20.6387H58.5744ZM80.919 20.6387H84.7308V27.9866C84.7308 28.7123 84.6219 29.4018 84.3859 30.0549C84.1681 30.7081 83.8051 31.2705 83.315 31.7604C82.8249 32.2502 82.3166 32.5768 81.7902 32.7764C81.046 33.0485 80.1566 33.1937 79.1219 33.1937C78.5229 33.1937 77.8695 33.1574 77.1616 33.0667C76.4537 32.9759 75.8547 32.8127 75.3827 32.5587C74.9108 32.3046 74.4751 31.9599 74.0758 31.4882C73.6765 31.0346 73.4042 30.5629 73.259 30.0731C73.023 29.2929 72.9141 28.6035 72.9141 27.9866V20.6387H76.7259V28.1499C76.7259 28.8212 76.9075 29.3473 77.2886 29.7283C77.6698 30.1093 78.1781 30.2908 78.8315 30.2908C79.485 30.2908 79.9932 30.1093 80.3744 29.7283C80.7374 29.3655 80.9371 28.8393 80.9371 28.1499V20.6387H80.919ZM86.5822 28.8756L90.1944 28.6398C90.267 29.2203 90.4304 29.6739 90.6664 29.9823C91.0657 30.4722 91.6102 30.7262 92.3545 30.7262C92.899 30.7262 93.3165 30.5992 93.6069 30.3452C93.8973 30.0912 94.0425 29.8009 94.0425 29.4562C94.0425 29.1296 93.8973 28.8575 93.6251 28.6035C93.3528 28.3495 92.6993 28.1136 91.6828 27.8959C90.0129 27.5149 88.8149 27.025 88.107 26.4082C87.3809 25.7913 87.036 24.993 87.036 24.0314C87.036 23.3964 87.2176 22.7977 87.5806 22.2353C87.9436 21.6728 88.5063 21.2193 89.2324 20.9108C89.9766 20.5843 90.9749 20.421 92.2637 20.421C93.8429 20.421 95.0409 20.7113 95.8577 21.31C96.6927 21.8906 97.1828 22.834 97.328 24.104L93.7521 24.3217C93.6614 23.7593 93.4617 23.3601 93.1531 23.1061C92.8446 22.8521 92.4271 22.7251 91.8825 22.7251C91.4469 22.7251 91.102 22.8159 90.8842 22.9973C90.6664 23.1787 90.5393 23.4146 90.5393 23.6867C90.5393 23.8863 90.6301 24.0496 90.8116 24.2129C90.9931 24.3762 91.4106 24.5213 92.0822 24.6664C93.7521 25.0293 94.932 25.3922 95.658 25.755C96.3841 26.1179 96.9105 26.5715 97.2372 27.1157C97.564 27.66 97.7273 28.2588 97.7273 28.9482C97.7273 29.7283 97.5095 30.4722 97.0739 31.1254C96.6382 31.7966 96.0211 32.3046 95.2406 32.6494C94.46 32.9941 93.4617 33.1574 92.2818 33.1574C90.1944 33.1574 88.7423 32.7582 87.9255 31.9418C87.1449 31.1435 86.6912 30.1275 86.5822 28.8756ZM105.877 28.4946V25.9365H111.777V31.1798C110.651 31.9418 109.653 32.4679 108.782 32.7582C107.91 33.0304 106.894 33.1755 105.696 33.1755C104.226 33.1755 103.046 32.9215 102.12 32.4317C101.194 31.9418 100.486 31.1979 99.9781 30.2001C99.4699 29.2203 99.2158 28.0773 99.2158 26.8073C99.2158 25.4647 99.488 24.2854 100.051 23.3057C100.613 22.3078 101.412 21.564 102.483 21.0378C103.318 20.6387 104.443 20.4391 105.859 20.4391C107.221 20.4391 108.237 20.5661 108.909 20.802C109.58 21.056 110.143 21.437 110.597 21.945C111.051 22.4711 111.377 23.1243 111.595 23.9226L107.929 24.5757C107.783 24.104 107.529 23.7411 107.166 23.5053C106.803 23.2513 106.349 23.1243 105.787 23.1243C104.952 23.1243 104.28 23.4146 103.79 23.9951C103.3 24.5757 103.046 25.501 103.046 26.7529C103.046 28.0773 103.3 29.0389 103.79 29.6013C104.298 30.1638 104.988 30.4541 105.877 30.4541C106.295 30.4541 106.712 30.3996 107.094 30.2726C107.475 30.1456 107.929 29.9461 108.419 29.6558V28.4946H105.877ZM121.597 30.9258H117.277L116.659 32.9578H112.775L117.422 20.6387H121.597L126.225 32.9578H122.232L121.597 30.9258ZM120.798 28.2588L119.455 23.8319L118.112 28.2588H120.798Z" fill="white"/>
</svg>
