<svg width="153" height="69" viewBox="0 0 153 69" fill="none" xmlns="http://www.w3.org/2000/svg">
<g clip-path="url(#clip0_4534_1025)">
<path fill-rule="evenodd" clip-rule="evenodd" d="M33.0275 0.600962C32.2149 -0.200304 30.8787 -0.218515 30.0481 0.600962C20.2248 10.5075 10.0586 20.0681 0.0367228 29.7926C-0.0174493 29.8472 -0.0174493 29.9383 0.0367228 29.9929L5.09278 35.1829C5.14696 35.2375 5.23724 35.2375 5.29141 35.1829L8.50562 32.0507V52.0641V59.0752H15.4577H37.4696C37.6321 59.0752 37.7766 58.9296 37.7766 58.7657V51.7546C37.7766 51.5907 37.6321 51.445 37.4696 51.445H16.0717V24.6936L30.8426 10.3072C31.2218 9.94301 31.8177 9.94301 32.1788 10.3072C36.5306 14.5321 40.7922 18.8298 45.2162 23C45.2704 23.0546 45.3607 23.0729 45.4329 23L50.5251 17.7918C50.5793 17.7371 50.5793 17.6461 50.5251 17.5915L46.8233 14.0222V5.31751C46.8233 5.15361 46.6969 5.02614 46.5344 5.02614H42.4354C42.2729 5.02614 42.1465 5.15361 42.1465 5.31751V9.48774L33.0275 0.600962Z" fill="url(#paint0_linear_4534_1025)"/>
<path fill-rule="evenodd" clip-rule="evenodd" d="M33.8942 62.1712C33.8942 64.5932 33.2984 66.3414 32.1066 67.4158C30.9148 68.4902 29.2174 69.0184 26.9963 69.0184H24.5586V64.32H26.1296C26.9602 64.32 27.5561 64.1561 27.8992 63.8283C28.2423 63.5005 28.4048 62.9724 28.4048 62.2258V33.0888H33.8942V62.1712ZM37.1265 43.9423C37.1265 41.7207 37.5599 39.7721 38.4447 38.0603C39.3115 36.3485 40.5032 35.0374 42.0201 34.1086C43.5188 33.1799 45.1982 32.7246 47.0581 32.7246C48.6832 32.7246 50.0917 33.0524 51.3196 33.708C52.5294 34.3636 53.5045 35.2013 54.2449 36.2028V33.0888H59.7704V54.978H54.2449V51.7729C53.5407 52.7927 52.5656 53.6486 51.3196 54.3224C50.0736 54.9962 48.6471 55.324 47.0219 55.324C45.1982 55.324 43.5188 54.8505 42.0201 53.9035C40.5213 52.9566 39.3295 51.609 38.4447 49.8972C37.5599 48.1672 37.1265 46.1823 37.1265 43.9423ZM54.2268 44.0334C54.2268 42.6858 53.974 41.5385 53.4504 40.5734C52.9267 39.6082 52.2225 38.8798 51.3377 38.3517C50.4528 37.8418 49.4958 37.5868 48.4665 37.5868C47.4553 37.5868 46.4983 37.8418 45.6496 38.3335C44.7828 38.8252 44.0786 39.5718 43.5549 40.5188C43.0132 41.4839 42.7424 42.613 42.7424 43.9423C42.7424 45.2717 43.0132 46.419 43.5549 47.4024C44.0967 48.3857 44.8009 49.1506 45.6676 49.6787C46.5344 50.2068 47.4734 50.4617 48.4665 50.4617C49.4777 50.4617 50.4348 50.2068 51.3377 49.6969C52.2225 49.187 52.9267 48.4404 53.4504 47.4752C53.956 46.5283 54.2268 45.3628 54.2268 44.0334ZM85.123 33.0706L71.6702 65.3216H65.8197L70.5326 54.4134L61.829 33.0706H67.9865L73.6024 48.3675L79.2904 33.0706H85.123ZM108.074 33.0706H102.223L96.5352 48.3675L90.9194 33.0706H84.7618L93.4655 54.4134L88.7525 65.3216H94.6211L108.074 33.0706ZM137.218 32.761C139.891 32.761 142.04 33.5805 143.665 35.2377C145.29 36.8766 146.121 39.1894 146.121 42.1395V54.978H140.631V42.8861C140.631 41.1743 140.198 39.8632 139.331 38.9526C138.464 38.0421 137.291 37.5868 135.81 37.5868C134.311 37.5868 133.137 38.0421 132.253 38.9526C131.386 39.8632 130.934 41.1743 130.934 42.8861V54.978H125.445V42.8861C125.445 41.1743 125.012 39.8632 124.145 38.9526C123.278 38.0421 122.104 37.5868 120.624 37.5868C119.107 37.5868 117.915 38.0421 117.03 38.9526C116.146 39.8632 115.712 41.1743 115.712 42.8861V54.978H110.223V33.0706H115.712V35.7112C116.416 34.7824 117.319 34.0722 118.439 33.5441C119.558 33.016 120.768 32.761 122.104 32.761C123.802 32.761 125.319 33.1252 126.655 33.8537C127.991 34.5821 129.02 35.6201 129.761 36.9495C130.465 35.6929 131.494 34.6731 132.831 33.9083C134.185 33.1435 135.647 32.761 137.218 32.761Z" fill="white"/>
<path fill-rule="evenodd" clip-rule="evenodd" d="M31.2035 29.8112C29.9756 29.8112 28.9643 29.4288 28.1879 28.6639C27.3934 27.8991 26.9961 26.9521 26.9961 25.8231C26.9961 24.694 27.3934 23.7289 28.1879 22.9822C28.9824 22.2174 29.9756 21.835 31.2035 21.835C32.3952 21.835 33.3703 22.2174 34.1468 22.9822C34.9233 23.7471 35.3025 24.694 35.3025 25.8231C35.3025 26.9521 34.9233 27.9173 34.1468 28.6639C33.3703 29.4288 32.3952 29.8112 31.2035 29.8112Z" fill="white"/>
<path fill-rule="evenodd" clip-rule="evenodd" d="M149.389 48.2949L149.894 49.2236C149.714 49.4057 149.587 49.5696 149.515 49.7335C149.443 49.8974 149.407 50.0977 149.407 50.3345C149.407 50.7533 149.533 51.0811 149.768 51.3361C150.021 51.591 150.328 51.7185 150.707 51.7185C151.086 51.7185 151.375 51.591 151.61 51.3543C151.844 51.0993 151.971 50.7897 151.971 50.3891C151.971 49.8974 151.808 49.515 151.465 49.2236L152.061 48.3495C152.675 48.823 152.982 49.4968 152.982 50.3527C152.982 51.1357 152.747 51.7367 152.296 52.1737C151.844 52.6108 151.303 52.8293 150.689 52.8293C150.273 52.8293 149.876 52.7201 149.515 52.5015C149.154 52.283 148.883 51.9916 148.666 51.6092C148.468 51.2268 148.359 50.7897 148.359 50.3163C148.359 49.8792 148.45 49.4786 148.612 49.1326C148.829 48.8048 149.082 48.5134 149.389 48.2949ZM148.395 45.2173C148.395 44.7985 148.504 44.3978 148.702 44.0336C148.901 43.6694 149.19 43.378 149.551 43.1777C149.912 42.9774 150.292 42.8681 150.707 42.8681C151.122 42.8681 151.501 42.9774 151.863 43.1777C152.224 43.378 152.495 43.6694 152.711 44.0336C152.91 44.3978 153.018 44.7802 153.018 45.2173C153.018 45.8547 152.801 46.401 152.35 46.838C151.899 47.2933 151.357 47.5118 150.725 47.5118C150.039 47.5118 149.479 47.2569 149.009 46.747C148.594 46.2917 148.395 45.7818 148.395 45.2173ZM149.425 45.1991C149.425 45.5451 149.551 45.8365 149.786 46.055C150.021 46.2917 150.328 46.401 150.707 46.401C151.086 46.401 151.393 46.2917 151.628 46.055C151.863 45.8365 151.989 45.5451 151.989 45.1991C151.989 44.8531 151.863 44.5617 151.628 44.325C151.393 44.0882 151.086 43.979 150.707 43.979C150.328 43.979 150.021 44.0882 149.786 44.325C149.551 44.5435 149.425 44.8349 149.425 45.1991ZM148.504 41.9758V40.865H149.009C148.793 40.6829 148.648 40.4643 148.54 40.2276C148.432 39.9908 148.377 39.7359 148.377 39.4627C148.377 39.1896 148.45 38.9346 148.576 38.7161C148.702 38.4976 148.901 38.3155 149.172 38.1698C148.919 37.9877 148.721 37.7692 148.576 37.5142C148.45 37.2593 148.377 36.9679 148.377 36.6765C148.377 36.3669 148.45 36.0756 148.594 35.8388C148.739 35.6021 148.937 35.42 149.154 35.3289C149.389 35.2197 149.768 35.165 150.292 35.165H152.856V36.2759H150.635C150.147 36.2759 149.804 36.3305 149.623 36.458C149.443 36.5855 149.353 36.7676 149.353 37.0225C149.353 37.2228 149.407 37.3867 149.515 37.5324C149.623 37.6781 149.768 37.8056 149.966 37.8784C150.147 37.9513 150.454 37.9877 150.869 37.9877H152.838V39.0985H150.779C150.382 39.0985 150.111 39.135 149.93 39.1896C149.75 39.2442 149.623 39.3353 149.533 39.4445C149.443 39.5538 149.407 39.6995 149.407 39.8634C149.407 40.0455 149.461 40.2276 149.569 40.3733C149.678 40.519 149.822 40.6464 150.021 40.7193C150.219 40.7921 150.526 40.8285 150.942 40.8285H152.892V41.9394H148.504V41.9758Z" fill="white"/>
<path fill-rule="evenodd" clip-rule="evenodd" d="M150.798 54.869C151.196 54.869 151.521 54.5412 151.521 54.1405C151.521 53.7399 151.196 53.4121 150.798 53.4121C150.401 53.4121 150.076 53.7399 150.076 54.1405C150.076 54.5412 150.401 54.869 150.798 54.869Z" fill="white"/>
</g>
<defs>
<linearGradient id="paint0_linear_4534_1025" x1="17.6873" y1="14.0424" x2="31.5619" y2="38.8549" gradientUnits="userSpaceOnUse">
<stop stop-color="#E99302"/>
<stop offset="1" stop-color="#F2C003"/>
</linearGradient>
<clipPath id="clip0_4534_1025">
<rect width="153" height="69" fill="white"/>
</clipPath>
</defs>
</svg>
