<svg width="133" height="48" viewBox="0 0 133 48" fill="none" xmlns="http://www.w3.org/2000/svg">
<g clip-path="url(#clip0_5030_596)">
<path fill-rule="evenodd" clip-rule="evenodd" d="M36.9767 0.68457C44.7567 0.68457 51.0628 7.7851 51.0628 16.5449C51.0628 25.3046 44.7567 32.4069 36.9767 32.4069C29.1967 32.4069 22.8906 25.3064 22.8906 16.5449C22.8906 7.78339 29.2019 0.68457 36.9767 0.68457ZM36.5146 2.44645C36.0305 2.44639 35.5468 2.47667 35.0665 2.53711V30.5595C35.5468 30.6205 36.0304 30.6513 36.5146 30.6519C43.525 30.6519 49.2093 24.3382 49.2093 16.5483C49.2093 8.75841 43.525 2.44645 36.5146 2.44645Z" fill="white"/>
<path fill-rule="evenodd" clip-rule="evenodd" d="M11.9525 31.2656H0V1.83203H11.9525V29.7638H24.149C24.3426 29.773 24.5251 29.856 24.6589 29.9957C24.7926 30.1353 24.8672 30.3209 24.8672 30.5138C24.8672 30.7068 24.7926 30.8923 24.6589 31.032C24.5251 31.1717 24.3426 31.2547 24.149 31.2639L11.9525 31.2656Z" fill="white"/>
<path fill-rule="evenodd" clip-rule="evenodd" d="M57.2548 31.2897H68.8071V3.37504H76.1388C76.2407 3.37989 76.3426 3.36408 76.4382 3.32857C76.5339 3.29307 76.6212 3.2386 76.6951 3.16847C76.769 3.09834 76.8278 3.01401 76.868 2.92059C76.9082 2.82716 76.9289 2.72659 76.9289 2.62496C76.9289 2.52333 76.9082 2.42275 76.868 2.32933C76.8278 2.23591 76.769 2.15158 76.6951 2.08145C76.6212 2.01132 76.5339 1.95685 76.4382 1.92134C76.3426 1.88584 76.2407 1.87003 76.1388 1.87488H49.9232C49.7297 1.88409 49.5471 1.96713 49.4134 2.10679C49.2797 2.24645 49.2051 2.432 49.2051 2.62496C49.2051 2.81792 49.2797 3.00347 49.4134 3.14313C49.5471 3.28279 49.7297 3.36583 49.9232 3.37504H57.2548V31.2897Z" fill="white"/>
<path fill-rule="evenodd" clip-rule="evenodd" d="M85.2236 31.2897H96.7759V3.37504H104.108C104.209 3.37989 104.311 3.36408 104.407 3.32857C104.503 3.29307 104.59 3.2386 104.664 3.16847C104.738 3.09834 104.797 3.01401 104.837 2.92059C104.877 2.82716 104.898 2.72659 104.898 2.62496C104.898 2.52333 104.877 2.42275 104.837 2.32933C104.797 2.23591 104.738 2.15158 104.664 2.08145C104.59 2.01132 104.503 1.95685 104.407 1.92134C104.311 1.88584 104.209 1.87003 104.108 1.87488H77.892C77.6984 1.88409 77.5158 1.96713 77.3821 2.10679C77.2484 2.24645 77.1738 2.432 77.1738 2.62496C77.1738 2.81792 77.2484 3.00347 77.3821 3.14313C77.5158 3.28279 77.6984 3.36583 77.892 3.37504H85.2236V31.2897Z" fill="white"/>
<path fill-rule="evenodd" clip-rule="evenodd" d="M102.553 31.1681C102.481 31.2956 102.362 31.3901 102.221 31.4314C102.08 31.4728 101.928 31.4578 101.799 31.3895C101.669 31.3213 101.571 31.2052 101.525 31.0661C101.48 30.927 101.491 30.7758 101.556 30.6447L116.996 1.43003C117.015 1.39288 117.039 1.35838 117.067 1.32739L117.754 0L132.991 30.8773H119.408L117.615 27.1141H104.702L102.553 31.1681ZM117.252 26.3614L111.485 14.2575L105.092 26.3614H117.252Z" fill="white"/>
<path d="M12.8438 38.3643H14.1802V47.8955H12.8438V38.3643ZM13.6339 46.6622H16.2296C16.9098 46.6622 17.4057 46.5333 17.7172 46.2756C17.8743 46.1422 17.9983 45.9744 18.0797 45.7854C18.161 45.5964 18.1975 45.3913 18.1862 45.186V45.1672C18.1925 44.8801 18.1338 44.5954 18.0144 44.3341C17.9025 44.1016 17.7156 43.913 17.4836 43.7987C17.1942 43.6667 16.8774 43.6051 16.5594 43.6191H13.6391V42.4046H16.5594C17.0541 42.4046 17.4286 42.29 17.6811 42.0625C17.9336 41.835 18.0608 41.4877 18.0608 41.0362C18.0608 40.5846 17.9199 40.2031 17.6382 39.9671C17.3564 39.731 16.9356 39.613 16.3739 39.613H13.6339V38.3728H16.6178C17.1535 38.3559 17.6858 38.4637 18.1724 38.6876C18.5707 38.8802 18.8982 39.1925 19.1086 39.5805C19.3231 40.0043 19.4293 40.4744 19.4178 40.9489C19.4202 41.2662 19.3552 41.5804 19.2271 41.8709C19.0961 42.1597 18.8955 42.4117 18.6431 42.6047C18.358 42.8184 18.0248 42.9593 17.6725 43.0153C18.0361 43.0626 18.3809 43.2041 18.6723 43.4258C18.9512 43.6384 19.1731 43.9164 19.3182 44.2349C19.4692 44.5645 19.546 44.9229 19.5432 45.2852V45.304C19.5535 45.7825 19.4349 46.2551 19.1997 46.6724C18.971 47.0667 18.6295 47.3841 18.2188 47.5842C17.7539 47.8034 17.2436 47.91 16.7294 47.8955H13.6374L13.6339 46.6622Z" fill="white"/>
<path d="M22.7684 47.5842C22.2672 47.309 21.8653 46.8842 21.6192 46.3697C21.3398 45.7697 21.2039 45.1133 21.2224 44.4521V38.3643H22.5674V44.4983C22.5674 45.1928 22.7426 45.7305 23.0931 46.1114C23.4435 46.4923 23.9399 46.6827 24.5824 46.6827C25.2283 46.6827 25.7276 46.4923 26.0803 46.1114C26.4331 45.7305 26.61 45.1928 26.6111 44.4983V38.3643H27.9545V44.4521C27.9734 45.1131 27.8382 45.7695 27.5594 46.3697C27.3126 46.8849 26.9093 47.3097 26.4067 47.5842C25.844 47.875 25.2161 48.018 24.5824 47.9998C23.952 48.0181 23.3274 47.875 22.7684 47.5842Z" fill="white"/>
<path d="M31.4972 47.8704C31.0973 47.7861 30.7091 47.654 30.3411 47.4769C29.9812 47.2993 29.6443 47.0787 29.3379 46.8201L30.1745 45.7937C30.5276 46.1022 30.9354 46.3423 31.3769 46.5019C31.836 46.6626 32.3196 46.7425 32.8062 46.738C33.4933 46.738 34.0395 46.6097 34.4209 46.3548C34.6032 46.2391 34.752 46.0781 34.8526 45.8876C34.9533 45.6971 35.0022 45.4837 34.9947 45.2686C35.0098 44.982 34.9166 44.7001 34.7335 44.4783C34.5517 44.2779 34.32 44.1286 34.0619 44.0456C33.7142 43.9337 33.3589 43.8474 32.9986 43.7873C32.9844 43.7847 32.9698 43.7847 32.9556 43.7873C32.9414 43.7899 32.9269 43.7899 32.9127 43.7873L32.813 43.7667C32.283 43.6847 31.7603 43.5612 31.2498 43.3973C30.8391 43.2524 30.4805 42.99 30.2191 42.6429C29.9323 42.2768 29.7897 41.7585 29.7897 41.0846C29.7746 40.553 29.9129 40.0282 30.1882 39.5724C30.4683 39.143 30.8744 38.8098 31.3512 38.618C32.2605 38.2747 33.25 38.1998 34.201 38.4024C34.5387 38.4787 34.8674 38.5899 35.1819 38.7343C35.5169 38.887 35.8357 39.0726 36.1336 39.2885L35.3691 40.3507C35.0359 40.1012 34.6693 39.8991 34.28 39.7503C33.9313 39.6195 33.5619 39.5517 33.1892 39.5502C32.5342 39.5502 32.0257 39.6802 31.6638 39.9402C31.4876 40.0644 31.3456 40.2306 31.2507 40.4237C31.1559 40.6168 31.1113 40.8305 31.121 41.0452C31.1129 41.1865 31.1336 41.3279 31.1817 41.4611C31.2298 41.5942 31.3044 41.7163 31.401 41.8201C31.5957 42.0135 31.8352 42.1562 32.0984 42.2358C32.4803 42.3511 32.8686 42.4442 33.2614 42.5146L33.3112 42.5249L33.361 42.5351L33.4332 42.5471L33.5053 42.5608C34.0018 42.655 34.4884 42.7953 34.9586 42.9799C35.3507 43.1455 35.6882 43.4176 35.9326 43.765C36.1937 44.1265 36.3242 44.6192 36.3242 45.2429V45.2566C36.34 45.784 36.1957 46.3038 35.9102 46.7482C35.6148 47.1771 35.1954 47.5063 34.7078 47.6925C34.1015 47.924 33.4553 48.0344 32.8062 48.0175C32.3659 48.014 31.9272 47.9647 31.4972 47.8704Z" fill="white"/>
<path d="M39.4505 47.8955H38.1055V38.3643H39.4505V47.8955Z" fill="white"/>
<path d="M41.8203 38.3643H43.04L47.7227 45.7368L47.5647 45.9078V38.3643H48.896V47.8955H47.6626L42.9936 40.6342L43.1516 40.4631V47.8955H41.8203V38.3643Z" fill="white"/>
<path d="M51.2656 38.3643H52.609V47.8955H51.2656V38.3643ZM51.9184 38.3643H57.4154V39.6369H51.9184V38.3643ZM51.9184 42.5295H56.687V43.8021H51.9115L51.9184 42.5295ZM51.9184 46.6348H57.4154V47.8955H51.9184V46.6348Z" fill="white"/>
<path d="M60.8973 47.8703C60.0996 47.7072 59.3562 47.3459 58.7363 46.8201L59.5729 45.7937C59.9265 46.1015 60.3342 46.3416 60.7754 46.5019C61.2344 46.6626 61.718 46.7424 62.2046 46.7379C62.8986 46.7379 63.4368 46.6102 63.8193 46.3548C64.0014 46.239 64.15 46.0779 64.2503 45.8874C64.3507 45.6969 64.3993 45.4836 64.3914 45.2686C64.4071 44.9821 64.3146 44.7002 64.132 44.4783C63.9497 44.2783 63.7182 44.1291 63.4603 44.0455C63.1122 43.9335 62.7562 43.8472 62.3953 43.7872C62.3816 43.7846 62.3677 43.7846 62.354 43.7872C62.3399 43.79 62.3253 43.79 62.3111 43.7872L62.2115 43.7667C61.6809 43.6846 61.1576 43.5611 60.6465 43.3972C60.2358 43.2524 59.8773 42.99 59.6158 42.6429C59.3307 42.2768 59.1881 41.7585 59.1881 41.0845C59.1723 40.5528 59.3106 40.0278 59.5866 39.5724C59.8668 39.143 60.2728 38.8097 60.7496 38.6179C61.6584 38.2747 62.6473 38.1998 63.5977 38.4024C63.9386 38.47 64.2714 38.5732 64.5906 38.7103C64.9256 38.863 65.2444 39.0487 65.5423 39.2645L64.7779 40.3268C64.4442 40.0769 64.0771 39.8747 63.6871 39.7264C63.3389 39.5955 62.9701 39.5277 62.598 39.5262C61.9429 39.5262 61.4344 39.6562 61.0726 39.9162C60.8964 40.0404 60.7543 40.2067 60.6595 40.3997C60.5646 40.5928 60.52 40.8065 60.5297 41.0213C60.5217 41.1625 60.5423 41.304 60.5904 41.4371C60.6385 41.5703 60.7131 41.6924 60.8097 41.7961C61.0045 41.9895 61.244 42.1322 61.5072 42.2118C61.889 42.3274 62.2773 42.4205 62.6701 42.4906L62.7199 42.5009L62.768 42.5112L62.8419 42.5231L62.914 42.5368C63.4101 42.6308 63.8961 42.7711 64.3656 42.9559C64.7583 43.1214 65.0964 43.3935 65.3413 43.741C65.6024 44.1025 65.733 44.5952 65.733 45.219V45.2327C65.7482 45.7602 65.6033 46.28 65.3173 46.7243C65.0218 47.1531 64.6025 47.4824 64.1148 47.6685C63.5084 47.8998 62.8623 48.0103 62.2132 47.9935C61.7714 47.9985 61.3304 47.9572 60.8973 47.8703Z" fill="white"/>
<path d="M68.9384 47.8703C68.1406 47.7072 67.3973 47.3459 66.7773 46.8201L67.6139 45.7937C67.9675 46.1015 68.3752 46.3416 68.8164 46.5019C69.2754 46.6626 69.7591 46.7424 70.2456 46.7379C70.9396 46.7379 71.4779 46.6102 71.8604 46.3548C72.0424 46.239 72.191 46.0779 72.2913 45.8874C72.3917 45.6969 72.4403 45.4836 72.4324 45.2686C72.4481 44.9821 72.3556 44.7002 72.173 44.4783C71.9908 44.2783 71.7592 44.1291 71.5013 44.0455C71.1532 43.9335 70.7972 43.8472 70.4363 43.7872C70.4227 43.7846 70.4087 43.7846 70.3951 43.7872C70.3809 43.79 70.3663 43.79 70.3521 43.7872L70.2525 43.7667C69.7219 43.6846 69.1986 43.5611 68.6876 43.3972C68.2771 43.2519 67.9186 42.9896 67.6569 42.6429C67.3717 42.2768 67.2291 41.7585 67.2291 41.0845C67.2133 40.5528 67.3516 40.0278 67.6277 39.5724C67.9078 39.143 68.3138 38.8097 68.7906 38.6179C69.6994 38.2747 70.6883 38.1998 71.6388 38.4024C71.9771 38.4784 72.3064 38.5896 72.6213 38.7342C72.9563 38.887 73.2751 39.0726 73.573 39.2885L72.8086 40.3507C72.475 40.1008 72.1078 39.8987 71.7178 39.7503C71.3696 39.6195 71.0008 39.5517 70.6287 39.5502C69.9748 39.5502 69.4663 39.6802 69.1033 39.9402C68.9271 40.0643 68.785 40.2306 68.6902 40.4237C68.5953 40.6168 68.5507 40.8305 68.5604 41.0452C68.5524 41.1865 68.573 41.3279 68.6211 41.4611C68.6692 41.5942 68.7438 41.7163 68.8404 41.8201C69.0352 42.0135 69.2747 42.1562 69.5379 42.2358C69.9197 42.3513 70.308 42.4444 70.7008 42.5146L70.7506 42.5248L70.7987 42.5351L70.8726 42.5471L70.9448 42.5608C71.4408 42.6547 71.9268 42.795 72.3963 42.9798C72.789 43.1454 73.1271 43.4174 73.372 43.765C73.6331 44.1265 73.7637 44.6191 73.7637 45.2429V45.2566C73.7789 45.7841 73.634 46.3039 73.348 46.7482C73.0525 47.177 72.6332 47.5063 72.1455 47.6924C71.5391 47.9238 70.893 48.0342 70.2439 48.0174C69.8048 48.0138 69.3672 47.9645 68.9384 47.8703Z" fill="white"/>
<path d="M85.8503 42.7644V44.4305C85.8635 45.0789 85.721 45.7211 85.4346 46.3036C85.1735 46.8254 84.7652 47.26 84.2596 47.554C83.7225 47.856 83.1137 48.0084 82.4971 47.9953C81.8776 48.009 81.2647 47.866 80.7157 47.5797C80.2122 47.3106 79.7984 46.901 79.5253 46.4011C79.2373 45.8613 79.0925 45.2572 79.1044 44.6461V41.8288C79.0908 41.1814 79.2334 40.5402 79.5201 39.9591C79.7813 39.4378 80.1896 39.0038 80.6951 38.7104C81.2312 38.4073 81.8396 38.2543 82.4559 38.2674C82.9822 38.2595 83.5028 38.3768 83.9744 38.6095C84.4364 38.8426 84.8348 39.1836 85.1357 39.6033C85.4547 40.0467 85.6712 40.5549 85.7695 41.0915H84.3128C84.2427 40.7906 84.1053 40.5094 83.9109 40.2687C83.7309 40.0469 83.5039 39.8676 83.2461 39.7436C82.9988 39.6286 82.7288 39.5702 82.4559 39.5725C82.0921 39.5673 81.7345 39.6659 81.4252 39.8565C81.1251 40.0492 80.8867 40.3234 80.738 40.6468C80.5692 41.0183 80.4858 41.4227 80.4941 41.8305V44.6461C80.4858 45.0211 80.5721 45.3922 80.7449 45.7254C80.9066 46.0277 81.1523 46.2771 81.4527 46.4439C81.7774 46.6182 82.1419 46.706 82.5108 46.6987C82.8756 46.7063 83.2355 46.6146 83.5518 46.4336C83.8531 46.2505 84.0924 45.9818 84.239 45.6621C84.4098 45.2864 84.4932 44.8771 84.4829 44.4647V44.0508H82.5297V42.7644H85.8503Z" fill="white"/>
<path d="M87.8906 38.3576H89.2357V47.8957H87.8906V38.3576ZM88.4781 42.5929H91.742C91.9807 42.5971 92.2156 42.533 92.4188 42.4082C92.62 42.2831 92.7796 42.1016 92.8774 41.8865C92.984 41.6413 93.039 41.377 93.039 41.1099C93.039 40.8428 92.984 40.5785 92.8774 40.3333C92.7798 40.1191 92.6216 39.9378 92.4222 39.8116C92.2162 39.6846 91.9773 39.6203 91.7351 39.6268H88.4712V38.3542H91.6853C92.1926 38.3435 92.6944 38.4612 93.1437 38.6963C93.5565 38.9169 93.8957 39.2528 94.1194 39.6628C94.3475 40.1113 94.4663 40.6071 94.4663 41.1099C94.4663 41.6127 94.3475 42.1084 94.1194 42.557C93.8935 42.9665 93.5535 43.3022 93.1403 43.5235C92.6933 43.758 92.1938 43.8757 91.6887 43.8656H88.4781V42.5929ZM91.0858 43.5697L92.4188 43.2772L94.8735 47.8957H93.2777L91.0858 43.5697Z" fill="white"/>
<path d="M97.8246 47.5639C97.3179 47.2768 96.907 46.848 96.6428 46.3306C96.3534 45.7588 96.2095 45.125 96.2236 44.4849V41.7822C96.2095 41.1421 96.3534 40.5083 96.6428 39.9365C96.907 39.4191 97.3179 38.9903 97.8246 38.7032C98.3686 38.4171 98.9745 38.2676 99.5897 38.2676C100.205 38.2676 100.811 38.4171 101.355 38.7032C101.861 38.9908 102.273 39.4194 102.538 39.9365C102.826 40.5088 102.969 41.1424 102.956 41.7822V44.4849C102.969 45.1248 102.826 45.7584 102.538 46.3306C102.273 46.8477 101.861 47.2764 101.355 47.5639C100.811 47.85 100.205 47.9996 99.5897 47.9996C98.9745 47.9996 98.3686 47.85 97.8246 47.5639ZM100.633 46.4161C100.936 46.2385 101.179 45.9761 101.332 45.6618C101.503 45.3096 101.588 44.9222 101.58 44.5311V41.7378C101.588 41.3467 101.503 40.9593 101.332 40.6071C101.179 40.2927 100.936 40.0304 100.633 39.8527C100.313 39.6777 99.9545 39.5859 99.5897 39.5859C99.2248 39.5859 98.8658 39.6777 98.5461 39.8527C98.2437 40.0304 98.0006 40.2927 97.8469 40.6071C97.6766 40.9594 97.5925 41.3469 97.6013 41.7378V44.5328C97.5925 44.9237 97.6766 45.3112 97.8469 45.6635C98.0006 45.9778 98.2437 46.2402 98.5461 46.4179C98.8658 46.5929 99.2248 46.6847 99.5897 46.6847C99.9545 46.6847 100.313 46.5929 100.633 46.4179V46.4161Z" fill="white"/>
<path d="M106.28 47.5842C105.779 47.3086 105.376 46.884 105.129 46.3697C104.851 45.7693 104.716 45.1131 104.734 44.4521V38.3643H106.079V44.4983C106.079 45.1928 106.254 45.7305 106.605 46.1114C106.955 46.4923 107.452 46.6827 108.094 46.6827C108.74 46.6827 109.239 46.4923 109.592 46.1114C109.945 45.7305 110.122 45.1928 110.123 44.4983V38.3643H111.466V44.4521C111.485 45.1131 111.35 45.7695 111.071 46.3697C110.824 46.8849 110.421 47.3097 109.918 47.5842C109.356 47.875 108.728 48.018 108.094 47.9998C107.464 48.0181 106.839 47.875 106.28 47.5842Z" fill="white"/>
<path d="M113.574 38.3643H114.923V47.8955H113.578L113.574 38.3643ZM114.261 42.9297H117.328C117.597 42.9359 117.862 42.8653 118.092 42.7262C118.317 42.5886 118.496 42.3881 118.607 42.1497C118.731 41.8818 118.793 41.5894 118.788 41.2944C118.794 40.9955 118.732 40.6991 118.607 40.4272C118.495 40.1888 118.316 39.9875 118.092 39.8473C117.863 39.7063 117.597 39.6344 117.328 39.6403H114.266V38.3677H117.283C117.809 38.3567 118.329 38.4823 118.791 38.732C119.221 38.9695 119.572 39.326 119.803 39.7584C120.039 40.2353 120.162 40.7601 120.162 41.2919C120.162 41.8237 120.039 42.3484 119.803 42.8254C119.574 43.2587 119.222 43.6155 118.791 43.8517C118.328 44.0996 117.809 44.2239 117.283 44.2127H114.266L114.261 42.9297Z" fill="white"/>
<path fill-rule="evenodd" clip-rule="evenodd" d="M13.6339 46.3421H16.2296C16.9167 46.3421 17.408 46.2138 17.7172 45.9538C17.8742 45.8207 17.998 45.6532 18.0791 45.4645C18.1602 45.2757 18.1962 45.0708 18.1844 44.8659V44.8454C18.1894 44.5585 18.1308 44.274 18.0127 44.0123C17.8987 43.7817 17.7124 43.5943 17.4818 43.4786C17.191 43.3447 16.8727 43.2809 16.5525 43.2922H13.6322V42.0794H16.5525C17.0472 42.0794 17.4234 41.9631 17.6742 41.7373C17.8068 41.6027 17.9092 41.4416 17.9747 41.2647C18.0401 41.0877 18.0671 40.899 18.0539 40.7109C18.0539 40.2337 17.913 39.8779 17.6313 39.6401C17.3496 39.4024 16.9304 39.286 16.3687 39.286H13.6202V38.0459H16.6178C17.1538 38.0278 17.6865 38.1363 18.1724 38.3623C18.5707 38.5528 18.8979 38.8642 19.1069 39.2518C19.3231 39.6795 19.4299 40.1536 19.4178 40.6322C19.4203 40.9492 19.3547 41.2629 19.2254 41.5525C19.0964 41.842 18.8961 42.0945 18.6431 42.2864C18.3587 42.5007 18.0251 42.6412 17.6725 42.6952C18.0287 42.7421 18.3668 42.8789 18.6549 43.0927C18.9429 43.3065 19.1713 43.5901 19.3182 43.9165C19.4699 44.2459 19.5467 44.6045 19.5432 44.9668V44.9873C19.5531 45.4658 19.4345 45.9382 19.1997 46.3558C18.9714 46.7499 18.6297 47.0669 18.2188 47.2658C17.7557 47.4897 17.2458 47.6005 16.7312 47.5891H13.6391V46.3489L13.6339 46.3421ZM12.8438 38.0442H14.1802V47.5822H12.8438V38.0442Z" fill="white"/>
<path fill-rule="evenodd" clip-rule="evenodd" d="M24.5827 47.6805C23.9523 47.6987 23.3277 47.5556 22.7687 47.2648C22.2675 46.9896 21.8656 46.5649 21.6195 46.0503C21.3407 45.4502 21.2054 44.7938 21.2244 44.1328V38.0449H22.566V44.1773C22.566 44.8735 22.7378 45.4106 23.0951 45.792C23.4524 46.1735 23.942 46.3617 24.5827 46.3617C25.2235 46.3617 25.7268 46.1718 26.0807 45.792C26.4345 45.4123 26.6115 44.8735 26.6115 44.1773V38.0449H27.9548V44.1328C27.973 44.7937 27.8378 45.4499 27.5597 46.0503C27.3129 46.5655 26.9097 46.9904 26.4071 47.2648C25.8443 47.5556 25.2164 47.6987 24.5827 47.6805Z" fill="white"/>
<path fill-rule="evenodd" clip-rule="evenodd" d="M32.8096 47.6798C32.3693 47.6816 31.93 47.6375 31.4989 47.5481C30.7012 47.3868 29.9577 47.0267 29.3379 46.5012L30.1745 45.4749C30.5278 45.783 30.9356 46.0232 31.3769 46.1831C31.8361 46.3433 32.3197 46.4226 32.8062 46.4174C33.4933 46.4174 34.031 46.2903 34.4192 46.036C34.6014 45.9202 34.7501 45.7591 34.8507 45.5686C34.9513 45.3781 35.0003 45.1649 34.9929 44.9498C35.0087 44.6633 34.9161 44.3814 34.7335 44.1595C34.551 43.9598 34.3196 43.8107 34.0619 43.7267C33.7143 43.6144 33.3589 43.5275 32.9986 43.4667C32.9843 43.4651 32.9699 43.4651 32.9556 43.4667C32.9408 43.4686 32.9258 43.4686 32.9109 43.4667L32.813 43.4479C32.2823 43.3658 31.759 43.2417 31.2481 43.0767C30.8374 42.9319 30.4788 42.6694 30.2174 42.3223C29.9305 41.9563 29.7897 41.438 29.7897 40.764C29.7743 40.2326 29.912 39.7079 30.1865 39.2519C30.4671 38.8233 30.873 38.4908 31.3495 38.2991C32.2579 37.9519 33.2484 37.8764 34.1993 38.0819C34.5373 38.1583 34.8665 38.269 35.1819 38.412C35.5158 38.5664 35.8339 38.7526 36.1318 38.9679L35.3674 40.0302C35.034 39.7799 34.6668 39.5777 34.2766 39.4298C33.9289 39.2996 33.5607 39.2318 33.1892 39.2297C32.5347 39.2297 32.0246 39.3597 31.6621 39.6197C31.4858 39.7441 31.3439 39.9107 31.2493 40.1041C31.1548 40.2975 31.1106 40.5115 31.121 40.7264C31.1128 40.867 31.1332 41.0079 31.181 41.1404C31.2288 41.273 31.3031 41.3946 31.3993 41.4979C31.5953 41.6908 31.8351 41.834 32.0984 41.9152C32.4804 42.0302 32.8687 42.1233 33.2614 42.1941C33.2777 42.1986 33.2943 42.2014 33.3112 42.2026L33.3593 42.2146L33.4314 42.2283L33.5036 42.2385C34 42.3338 34.4865 42.4747 34.9569 42.6593C35.3491 42.8248 35.687 43.0961 35.9326 43.4428C36.1937 43.8037 36.3225 44.298 36.3225 44.9241V44.9361C36.3383 45.4632 36.1947 45.9829 35.9102 46.4277C35.6132 46.8554 35.1944 47.1849 34.7078 47.3736C34.101 47.5975 33.4563 47.7015 32.8096 47.6798Z" fill="white"/>
<path d="M39.4505 38.0449H38.1055V47.583H39.4505V38.0449Z" fill="white"/>
<path fill-rule="evenodd" clip-rule="evenodd" d="M41.8184 38.0449H43.0363L47.7208 45.4174L47.5627 45.5868V38.0449H48.894V47.5762H47.6624L42.9916 40.3148L43.1497 40.1455V47.5762H41.8184V38.0449Z" fill="white"/>
<path fill-rule="evenodd" clip-rule="evenodd" d="M51.2656 38.0449H52.609V47.583H51.2656V38.0449ZM51.9167 46.3104H57.4137V47.583H51.9167V46.3104ZM51.9167 42.205H56.6888V43.476H51.9132V42.205H51.9167ZM51.9167 38.0381H57.4137V39.3125H51.9167V38.0381Z" fill="white"/>
<path fill-rule="evenodd" clip-rule="evenodd" d="M62.208 47.6799C61.7677 47.6817 61.3284 47.6376 60.8973 47.5481C60.0996 47.3869 59.3561 47.0267 58.7363 46.5013L59.5729 45.4749C59.926 45.7834 60.3338 46.0235 60.7754 46.1831C61.2351 46.3433 61.7193 46.4226 62.2063 46.4175C62.8934 46.4175 63.4305 46.2903 63.8176 46.036C64 45.9205 64.1489 45.7594 64.2496 45.5689C64.3502 45.3784 64.3991 45.1649 64.3914 44.9498C64.4068 44.6637 64.3149 44.3821 64.1337 44.1595C63.9505 43.9598 63.7185 43.8107 63.4603 43.7268C63.1128 43.614 62.7574 43.5271 62.397 43.4667C62.3827 43.4651 62.3683 43.4651 62.354 43.4667C62.3392 43.4685 62.3242 43.4685 62.3094 43.4667L62.2132 43.4479C61.6824 43.366 61.1591 43.2419 60.6483 43.0767C60.2377 42.9316 59.8792 42.6693 59.6176 42.3224C59.3324 41.9563 59.1898 41.438 59.1898 40.7641C59.175 40.2325 59.3133 39.7078 59.5884 39.2519C59.869 38.8234 60.2749 38.4908 60.7513 38.2991C61.6592 37.9519 62.6491 37.8764 63.5995 38.0819C63.9376 38.1579 64.2669 38.2685 64.582 38.412C64.9165 38.5664 65.2352 38.7526 65.5337 38.968L64.7624 40.0063C64.429 39.756 64.0618 39.5538 63.6716 39.4059C63.3232 39.2758 62.9545 39.2081 62.5825 39.2057C61.928 39.2057 61.4178 39.3357 61.0571 39.5958C60.8806 39.7201 60.7384 39.8866 60.6436 40.08C60.5487 40.2734 60.5042 40.4875 60.5143 40.7025C60.5064 40.8432 60.5271 40.9841 60.5752 41.1167C60.6233 41.2492 60.6978 41.3708 60.7943 41.4739C60.9897 41.6677 61.2297 41.8109 61.4934 41.8913C61.8749 42.0061 62.2626 42.0992 62.6547 42.1701C62.671 42.1744 62.6877 42.1772 62.7045 42.1787L62.7543 42.1907L62.8264 42.2044L62.8986 42.2146C63.3945 42.3099 63.8804 42.4507 64.3501 42.6354C64.7426 42.8005 65.0807 43.0719 65.3259 43.4189C65.587 43.7798 65.7175 44.2741 65.7175 44.9002V44.9122C65.7327 45.4394 65.5885 45.9591 65.3035 46.4038C65.0071 46.8321 64.5881 47.1617 64.1011 47.3497C63.4975 47.5811 62.8546 47.6932 62.208 47.6799Z" fill="white"/>
<path fill-rule="evenodd" clip-rule="evenodd" d="M70.2588 47.6799C69.8185 47.6818 69.3792 47.6377 68.9481 47.5481C68.5475 47.4655 68.1586 47.3339 67.7903 47.1564C67.43 46.9802 67.093 46.7601 66.7871 46.5013L67.6237 45.4749C67.9768 45.7834 68.3846 46.0235 68.8262 46.1831C69.2858 46.3435 69.7701 46.4228 70.2571 46.4175C70.9442 46.4175 71.4813 46.2903 71.8684 46.036C72.0508 45.9205 72.1997 45.7594 72.3004 45.5689C72.401 45.3784 72.4499 45.1649 72.4421 44.9498C72.4579 44.6634 72.3654 44.3814 72.1828 44.1595C72.0005 43.9595 71.769 43.8103 71.5111 43.7268C71.1635 43.6142 70.8081 43.5273 70.4478 43.4667C70.4335 43.4651 70.4191 43.4651 70.4048 43.4667C70.39 43.4685 70.375 43.4685 70.3602 43.4667L70.264 43.4479C69.7332 43.366 69.2099 43.2419 68.699 43.0767C68.2882 42.9321 67.9296 42.6696 67.6683 42.3224C67.3832 41.9563 67.2406 41.438 67.2406 40.7641C67.225 40.2324 67.3633 39.7074 67.6391 39.2519C67.9194 38.823 68.3254 38.4903 68.8021 38.2991C69.7099 37.9519 70.6999 37.8764 71.6502 38.0819C71.9883 38.1581 72.3175 38.2687 72.6328 38.412C72.9673 38.5664 73.286 38.7526 73.5845 38.968L72.8201 40.0302C72.4864 39.7803 72.1193 39.5782 71.7293 39.4298C71.3809 39.2998 71.0122 39.232 70.6402 39.2297C69.9857 39.2297 69.4755 39.3597 69.1147 39.6197C68.9383 39.744 68.7961 39.9106 68.7012 40.104C68.6064 40.2974 68.5619 40.5114 68.5719 40.7264C68.5641 40.867 68.5847 41.0077 68.6325 41.1403C68.6803 41.2728 68.7543 41.3944 68.8502 41.4979C69.0462 41.6909 69.286 41.834 69.5494 41.9153C69.9315 42.0298 70.3197 42.1229 70.7123 42.1941C70.7287 42.1983 70.7453 42.2012 70.7621 42.2026L70.8119 42.2146L70.8841 42.2283L70.9545 42.2386C71.451 42.3336 71.9375 42.4745 72.4078 42.6594C72.8 42.8248 73.138 43.0962 73.3835 43.4428C73.6446 43.8037 73.7752 44.2981 73.7752 44.9241V44.9361C73.7904 45.4634 73.6461 45.9831 73.3612 46.4277C73.0648 46.8561 72.6458 47.1857 72.1587 47.3737C71.5514 47.5977 70.9061 47.7017 70.2588 47.6799Z" fill="white"/>
<path fill-rule="evenodd" clip-rule="evenodd" d="M85.8443 42.4455V44.1116C85.8592 44.7627 85.7173 45.4079 85.4303 45.9932C85.1692 46.515 84.7609 46.9496 84.2554 47.2436C83.7185 47.5462 83.1097 47.6992 82.4929 47.6867C81.8733 47.7003 81.2604 47.5573 80.7115 47.271C80.2074 47.0026 79.7935 46.5928 79.5211 46.0924C79.2316 45.55 79.0861 44.943 79.0985 44.3288V41.5081C79.0854 40.8606 79.2285 40.2195 79.5159 39.6385C79.7769 39.1166 80.1853 38.6821 80.6909 38.3881C81.2285 38.0856 81.8378 37.9326 82.4551 37.945C82.9822 37.941 83.5026 38.0618 83.9736 38.2974C84.4352 38.531 84.8336 38.8719 85.1349 39.2912C85.4534 39.7347 85.6693 40.243 85.767 40.7794H84.3103C84.2408 40.4783 84.1034 40.197 83.9084 39.9567C83.7288 39.7345 83.5017 39.5551 83.2436 39.4315C82.9971 39.3129 82.7271 39.251 82.4534 39.2502C82.0863 39.2425 81.7248 39.3405 81.4124 39.5324C81.1122 39.7251 80.8738 39.9993 80.7252 40.3227C80.5571 40.695 80.4743 41.1 80.483 41.5081V44.322C80.4742 44.6969 80.5598 45.068 80.7321 45.4014C80.8923 45.7047 81.1384 45.9545 81.4399 46.1198C81.7647 46.294 82.1292 46.3818 82.498 46.3747C82.8593 46.3807 83.2155 46.289 83.5287 46.1095C83.8297 45.9261 84.0689 45.6575 84.2158 45.3381C84.3857 44.9621 84.4685 44.5528 84.4581 44.1407V43.7267H82.5255V42.4472L85.8443 42.4455Z" fill="white"/>
<path fill-rule="evenodd" clip-rule="evenodd" d="M88.4666 42.2769H91.7305C91.9726 42.2827 92.2113 42.2186 92.4176 42.0921C92.6172 41.969 92.7766 41.7907 92.8763 41.5789C92.9868 41.3351 93.0414 41.0698 93.036 40.8024C93.0414 40.5349 92.9868 40.2696 92.8763 40.0258C92.778 39.8114 92.6192 39.6301 92.4193 39.504C92.2132 39.3773 91.9743 39.3137 91.7322 39.321H88.4666V38.0466H91.6824C92.1898 38.036 92.6916 38.1537 93.1408 38.3888C93.5545 38.6085 93.8934 38.9454 94.1148 39.3569C94.352 39.8014 94.4703 40.2992 94.4584 40.8024C94.47 41.306 94.3517 41.8043 94.1148 42.2495C93.8884 42.6586 93.5485 42.9941 93.1357 43.2159C92.6884 43.4497 92.1891 43.5673 91.6841 43.5581H88.4666V42.2871V42.2769ZM87.8809 38.0381H89.2242V47.583H87.8809V38.0381ZM91.0743 43.2519L92.4176 42.9525L94.8689 47.583H93.2765L91.0743 43.2519Z" fill="white"/>
<path fill-rule="evenodd" clip-rule="evenodd" d="M99.5864 47.6801C98.9688 47.6928 98.3589 47.5423 97.8188 47.2439C97.3129 46.9558 96.9023 46.5273 96.6369 46.0106C96.3476 45.4388 96.2036 44.805 96.2178 44.1649V41.4639C96.2034 40.8232 96.3474 40.1889 96.6369 39.6165C96.9028 39.1002 97.3133 38.6718 97.8188 38.3832C98.3626 38.0957 98.9689 37.9453 99.5847 37.9453C100.2 37.9453 100.807 38.0957 101.351 38.3832C101.857 38.6717 102.268 39.1001 102.534 39.6165C102.822 40.1893 102.966 40.8235 102.952 41.4639V44.1649C102.966 44.8059 102.823 45.4407 102.534 46.014C102.268 46.5308 101.857 46.9593 101.351 47.2473C100.812 47.5453 100.203 47.6958 99.5864 47.6835V47.6801ZM99.5864 46.3613C99.9517 46.3692 100.312 46.2775 100.629 46.0961C100.931 45.9186 101.173 45.6569 101.327 45.3435C101.498 44.991 101.583 44.6028 101.574 44.2111V41.416C101.583 41.0249 101.498 40.6373 101.327 40.2854C101.174 39.9708 100.931 39.7083 100.629 39.531C100.309 39.356 99.9498 39.2642 99.5847 39.2642C99.2195 39.2642 98.8603 39.356 98.5403 39.531C98.2384 39.7088 97.9958 39.9711 97.8428 40.2854C97.6725 40.6377 97.5884 41.0251 97.5972 41.416V44.2111C97.5883 44.6026 97.6725 44.9906 97.8428 45.3435C97.9969 45.6566 98.2392 45.9181 98.5403 46.0961C98.8587 46.276 99.2204 46.3659 99.5864 46.3561V46.3613Z" fill="white"/>
<path fill-rule="evenodd" clip-rule="evenodd" d="M108.091 47.6805C107.46 47.6987 106.836 47.5556 106.277 47.2648C105.776 46.9896 105.374 46.5649 105.127 46.0503C104.848 45.4505 104.712 44.7939 104.732 44.1328V38.0449H106.074V44.1773C106.074 44.874 106.25 45.4123 106.603 45.792C106.956 46.1718 107.452 46.3617 108.091 46.3617C108.737 46.3617 109.236 46.1718 109.589 45.792C109.944 45.4106 110.119 44.8735 110.119 44.1773V38.0449H111.463V44.1328C111.481 44.7937 111.346 45.4499 111.068 46.0503C110.821 46.566 110.417 46.9909 109.913 47.2648C109.351 47.5558 108.724 47.6988 108.091 47.6805Z" fill="white"/>
<path fill-rule="evenodd" clip-rule="evenodd" d="M114.261 42.6104H117.326C117.595 42.6154 117.86 42.5448 118.09 42.4068C118.315 42.2687 118.494 42.0684 118.606 41.8304C118.73 41.5625 118.792 41.2702 118.788 40.9751C118.794 40.676 118.732 40.3795 118.606 40.1079C118.493 39.8695 118.314 39.6683 118.09 39.528C117.861 39.3879 117.595 39.3167 117.326 39.3227H114.261V38.0483H117.278C117.804 38.0374 118.325 38.1629 118.788 38.4127C119.217 38.6503 119.567 39.0069 119.796 39.439C120.045 39.9137 120.169 40.4433 120.157 40.9785C120.169 41.511 120.044 42.0378 119.796 42.5095C119.567 42.9413 119.216 43.2978 118.788 43.5358C118.324 43.7823 117.804 43.9059 117.278 43.895H114.261V42.6104ZM113.574 38.0449H114.921V47.583H113.578L113.574 38.0449Z" fill="white"/>
</g>
<defs>
<clipPath id="clip0_5030_596">
<rect width="133" height="48" fill="white"/>
</clipPath>
</defs>
</svg>
