<svg width="123" height="49" viewBox="0 0 123 49" fill="none" xmlns="http://www.w3.org/2000/svg">
<path d="M43.4 20.3906C39.7002 20.3906 36.744 21.5285 34.4951 23.8042C32.2462 26.0799 30.8679 28.9155 30.3238 32.3291H29.9973L31.0674 21.2576H29.9611H27.023H24.5021V27.868C24.5021 33.0335 23.5771 37.0792 21.7091 40.0231C19.8592 42.949 17.302 44.4301 14.0375 44.4301C11.2445 44.4301 9.21321 43.4367 7.92554 41.45C6.656 39.4632 6.02123 36.3206 6.02123 32.022V21.2756H0V32.9431C0 38.3615 0.943085 42.3711 2.82925 44.99C4.71542 47.6088 7.58095 48.9454 11.4621 49.0176C15.1619 49.0176 18.1181 47.8798 20.367 45.604C22.5978 43.3283 23.9943 40.4927 24.5383 37.0792H24.8648L23.7948 48.1507H27.0774H30.0155H30.3601V41.5403C30.3601 36.3748 31.285 32.3291 33.1531 29.367C35.0211 26.405 37.5783 24.924 40.8428 24.924C43.6358 24.924 45.6671 25.9354 46.9547 27.9402C48.2243 29.945 48.859 33.1057 48.859 37.4043V48.1507H54.8803V36.4831C54.8803 31.0648 53.9372 27.0552 52.051 24.4363C50.1467 21.7994 47.2631 20.4629 43.4 20.3906Z" fill="white"/>
<path d="M66.7419 21.2578H60.7207V48.1329H66.7419V21.2578Z" fill="white"/>
<path d="M81.0148 13.7266L74.9936 14.8102V21.2581H70.6953V25.5566H74.9936V38.4523C74.9936 41.2157 75.1931 43.2927 75.5921 44.6834C75.9911 46.0742 76.7528 47.0856 77.8773 47.7177C79.0017 48.3499 80.7428 48.6569 83.0642 48.6569C85.8209 48.6569 88.1242 48.2957 89.956 47.5732V44.7196C88.3782 44.7918 87.3263 44.8279 86.7822 44.8279C84.8416 44.8279 83.4995 44.6293 82.7196 44.2138C81.9398 43.7984 81.4682 43.1121 81.2869 42.1187C81.1055 41.1254 81.0148 39.3734 81.0148 36.8268V25.5386H89.9379V21.24H81.0148V13.7266Z" fill="white"/>
<path d="M123.001 32.6C122.964 30.1978 122.275 28.0666 120.897 26.2244C119.537 24.3821 117.651 22.9373 115.22 21.9258C112.808 20.9144 109.997 20.3906 106.805 20.3906C103.577 20.3906 100.748 20.9866 98.2991 22.1606C95.8689 23.3527 93.9646 25.0143 92.6225 27.1816C91.2804 29.349 90.6094 31.8595 90.6094 34.677C90.6094 37.5126 91.2804 40.0051 92.6225 42.1724C93.9646 44.3398 95.8507 46.0194 98.2991 47.1934C100.729 48.3855 103.577 48.9634 106.805 48.9634C109.997 48.9634 112.591 48.8009 114.567 48.4577C116.562 48.1145 118.974 47.4102 121.804 46.3265V41.4861L120.57 42.0279C118.811 42.8226 117.161 43.4186 115.601 43.834C114.041 44.2495 112.01 44.4481 109.489 44.4481C105.3 44.4481 102.217 43.8702 100.24 42.7323C98.2629 41.5945 97.0659 39.6619 96.6306 36.9708H122.983V32.6H123.001ZM96.5399 33.2863C96.7213 30.7397 97.7551 28.6988 99.6412 27.1636C101.527 25.6284 103.921 24.8517 106.823 24.8517C109.943 24.8517 112.464 25.5922 114.368 27.0552C116.29 28.5182 117.288 30.4507 117.36 32.8528L96.5399 33.2863Z" fill="white"/>
<path d="M57.7104 13.5459C56.2051 12.1913 55.4434 10.2768 55.4434 7.78437C55.4434 5.38223 56.2051 3.46775 57.7104 2.07704C59.2157 0.704386 61.1925 0 63.6047 0C66.0893 0 68.1206 0.704386 69.6622 2.0951C71.2038 3.48581 71.9836 5.38223 71.9836 7.80243C71.9836 10.2949 71.2038 12.2094 69.6622 13.564C68.1206 14.9185 66.0893 15.6049 63.6047 15.6049C61.1925 15.5868 59.2157 14.9005 57.7104 13.5459Z" fill="#7460A7"/>
</svg>
